<svg xmlns="http://www.w3.org/2000/svg" xmlns:xlink="http://www.w3.org/1999/xlink" version="1.1" x="0px" y="0px" viewBox="0 0 100 100" enable-background="new 0 0 100 100" xml:space="preserve"><g><path d="M25.733,22.57c-2.43-1.403-5.086-2.071-7.704-2.071c-5.336,0-10.525,2.77-13.386,7.722   c-4.264,7.385-1.733,16.827,5.651,21.09l19.908,11.496l15.439-26.742L25.733,22.57z M29.449,57.994L11.324,47.528   c-3.096-1.786-5.309-4.672-6.234-8.124c-0.926-3.453-0.45-7.059,1.337-10.154c2.383-4.128,6.829-6.692,11.603-6.692   c2.333,0,4.641,0.62,6.675,1.795l18.125,10.465L29.449,57.994z"></path><path d="M95.502,27.778c-4.264-7.384-13.706-9.915-21.092-5.651L54.502,33.621l15.439,26.741l19.907-11.494   C97.234,44.604,99.765,35.162,95.502,27.778z M82.879,24.493c-3.106-0.235-6.019,2.617-9.021,0.595   c-0.063-0.043-0.128-0.107-0.191-0.155l1.773-1.023c4.158-2.4,9.074-2.295,13.023-0.179C87.979,25.33,85.204,24.669,82.879,24.493z   "></path><circle cx="49.283" cy="60.739" r="3.431"></circle><circle cx="57.345" cy="69.487" r="2.917"></circle><circle cx="58.546" cy="54.906" r="2.917"></circle><circle cx="47.224" cy="71.031" r="2.402"></circle><path d="M52.91,75.49c-1.328,0-2.403,1.075-2.403,2.402c0,1.326,1.075,2.401,2.403,2.401c1.324,0,2.4-1.075,2.4-2.401   C55.311,76.565,54.234,75.49,52.91,75.49z"></path><circle cx="40.362" cy="69.315" r="2.402"></circle><circle cx="44.593" cy="80.326" r="2.402"></circle><circle cx="41.735" cy="55.593" r="2.402"></circle><circle cx="47.911" cy="47.701" r="2.402"></circle></g></svg>